# xmcd
#
# Track frame offsets:
#	150
#	13952
#	27890
#	45120
#	63482
#	75677
#	95045
#	105190
#	128257
#	142547
#
# Disc length: 2049 seconds
#
# Revision: 1
# Processed by: cddbd v1.5.2PL0 Copyright (c) Steve Scherf et al.
# Submitted via: audiograbber 1.83.01
#
DISCID=6907ff0a
DTITLE=Count Basie - Celebrating The Best of Jazz
DYEAR=2001
DGENRE=Jazz
TTITLE0=Jumping At The Woodside
TTITLE1=All Of Me
TTITLE2=One O'clock Jump
TTITLE3=Lester Leaps In
TTITLE4=April In Paris
TTITLE5=Going To Chicago Blues
TTITLE6=Basie Boogie
TTITLE7=Everyday I Have The Blues
TTITLE8=Every Tub
TTITLE9=Red Bank Boogie
EXTD=
EXTT0=
EXTT1=
EXTT2=
EXTT3=
EXTT4=
EXTT5=
EXTT6=
EXTT7=
EXTT8=
EXTT9=
PLAYORDER=
